<?xml version="1.0" encoding="UTF-8"?>
<!DOCTYPE svg PUBLIC "-//W3C//DTD SVG 1.1//EN" "http://www.w3.org/Graphics/SVG/1.1/DTD/svg11.dtd">
<!-- Creator: CorelDRAW -->
<svg xmlns="http://www.w3.org/2000/svg" xml:space="preserve" width="2.66666in" height="2.66666in" version="1.1" style="shape-rendering:geometricPrecision; text-rendering:geometricPrecision; image-rendering:optimizeQuality; fill-rule:evenodd; clip-rule:evenodd"
viewBox="0 0 2667 2667"
 xmlns:xlink="http://www.w3.org/1999/xlink">
 <defs>
  <style type="text/css">
   <![CDATA[
    .fil1 {fill:#333333}
    .fil0 {fill:#D7D7D7}
    .fil2 {fill:white}
   ]]>
  </style>
 </defs>
 <g id="_610097264">
  <circle class="fil0" cx="1390" cy="1387" r="1277"/>
  <circle class="fil1" cx="1277" cy="1279" r="1277"/>
 </g>
 <g id="Layer_x0020_1">
  <metadata id="CorelCorpID_0Corel-Layer"/>
  <path class="fil2" d="M1748 1527c-154,0 -280,-125 -280,-279l0 -132c0,-13 11,-23 24,-23l44 0c12,0 21,-10 21,-22l0 -51c0,-13 11,-23 24,-23l335 0c13,0 23,10 23,23l0 51c0,12 10,22 21,22l45 0c13,0 23,10 23,23l0 132c0,154 -125,279 -280,279zm-233 -388l0 109c0,128 105,233 233,233 129,0 233,-105 233,-233l0 -109 -21 0c-37,0 -68,-30 -68,-68l0 -28 -288 0 0 28c0,38 -30,68 -68,68l-21 0z"/>
  <path class="fil2" d="M1679 1208c-9,0 -17,-4 -21,-12 -6,-11 -17,-18 -29,-18 -12,0 -23,7 -29,18 -6,11 -20,16 -31,10 -12,-6 -16,-20 -10,-32 13,-26 40,-42 70,-42 30,0 57,16 71,42 5,12 1,26 -10,32 -4,2 -8,2 -11,2z"/>
  <path class="fil2" d="M1629 1277c-13,0 -24,-10 -24,-23l0 -21c0,-13 11,-23 24,-23 13,0 23,10 23,23l0 21c0,13 -10,23 -23,23z"/>
  <path class="fil2" d="M1917 1208c-8,0 -16,-4 -20,-12 -6,-11 -17,-18 -29,-18 -13,0 -24,7 -29,18 -6,11 -20,16 -32,10 -11,-6 -16,-20 -10,-32 14,-26 41,-42 71,-42 30,0 57,16 70,42 6,12 2,26 -10,32 -3,2 -7,2 -11,2z"/>
  <path class="fil2" d="M1868 1277c-13,0 -24,-10 -24,-23l0 -21c0,-13 11,-23 24,-23 13,0 23,10 23,23l0 21c0,13 -10,23 -23,23z"/>
  <path class="fil2" d="M1811 1404c-9,0 -18,-6 -22,-16 -6,-18 -22,-30 -41,-30 -18,0 -35,12 -41,30 -4,12 -17,19 -29,15 -12,-4 -19,-17 -15,-30 12,-37 46,-61 85,-61 39,0 73,24 86,61 4,13 -3,26 -15,30 -3,1 -5,1 -8,1z"/>
  <path class="fil2" d="M2163 2130l-162 0 0 -273c0,-7 -5,-13 -13,-13 -7,0 -13,6 -13,13l0 273 -453 0 0 -273c0,-7 -6,-13 -14,-13 -7,0 -13,6 -13,13l0 273 -162 0c-13,0 -23,-11 -23,-24l0 -428c0,-82 66,-148 148,-148l159 0 0 88c0,72 59,131 131,131 73,0 132,-59 132,-132l0 -87 158 0c82,0 149,66 149,148l0 428c0,13 -11,24 -24,24z"/>
  <path class="fil2" d="M1289 2130l-118 0 0 -273c0,-7 -5,-13 -13,-13 -7,0 -13,6 -13,13l0 273 -453 0 0 -273c0,-7 -6,-13 -14,-13 -7,0 -13,6 -13,13l0 273 -162 0c-13,0 -23,-11 -23,-24l0 -428c0,-82 66,-148 148,-148l159 0 0 88c0,72 59,131 131,131 73,0 132,-59 132,-132l0 -87 158 0c43,0 81,18 108,46 -21,29 -33,64 -33,102l0 428c0,9 2,17 6,24z"/>
  <path class="fil2" d="M918 1527c-154,0 -280,-125 -280,-279l0 -132c0,-13 11,-23 24,-23l44 0c12,0 21,-10 21,-22l0 -51c0,-13 11,-23 24,-23l334 0c13,0 24,10 24,23l0 51c0,12 9,22 21,22l45 0c13,0 23,10 23,23l0 132c0,154 -125,279 -280,279zm-233 -388l0 109c0,128 105,233 233,233 129,0 233,-105 233,-233l0 -109 -21 0c-37,0 -68,-30 -68,-68l0 -28 -288 0 0 28c0,38 -30,68 -68,68l-21 0z"/>
  <path class="fil2" d="M2005 1139l-45 0c-37,0 -68,-30 -68,-68l0 -28 -288 0 0 28c0,38 -30,68 -68,68l-44 0c-13,0 -24,-10 -24,-23l0 -234c0,-48 39,-86 86,-86l388 0c48,0 86,38 86,86l0 234c0,13 -10,23 -23,23z"/>
  <path class="fil2" d="M1175 1139l-45 0c-37,0 -68,-30 -68,-68l0 -28 -288 0 0 28c0,38 -30,68 -68,68l-44 0c-13,0 -24,-10 -24,-23l0 -234c0,-48 39,-86 86,-86l388 0c48,0 86,38 86,86l0 234c0,13 -10,23 -23,23z"/>
  <path class="fil2" d="M849 1208c-9,0 -17,-4 -21,-12 -6,-11 -17,-18 -29,-18 -12,0 -23,7 -29,18 -6,11 -20,16 -31,10 -12,-6 -16,-20 -10,-32 13,-26 40,-42 70,-42 30,0 57,16 71,42 5,12 1,26 -10,32 -4,2 -8,2 -11,2z"/>
  <path class="fil2" d="M799 1277c-13,0 -24,-10 -24,-23l0 -21c0,-13 11,-23 24,-23 13,0 23,10 23,23l0 21c0,13 -10,23 -23,23z"/>
  <path class="fil2" d="M1087 1208c-8,0 -16,-4 -20,-12 -6,-11 -17,-18 -29,-18 -12,0 -23,7 -29,18 -6,11 -20,16 -31,10 -12,-6 -16,-20 -10,-32 13,-26 40,-42 70,-42 30,0 57,16 70,42 6,12 2,26 -10,32 -3,2 -7,2 -11,2z"/>
  <path class="fil2" d="M1038 1277c-13,0 -24,-10 -24,-23l0 -21c0,-13 11,-23 24,-23 13,0 23,10 23,23l0 21c0,13 -10,23 -23,23z"/>
  <path class="fil2" d="M981 1404c-9,0 -18,-6 -22,-16 -6,-18 -22,-30 -41,-30 -18,0 -35,12 -41,30 -4,12 -17,19 -29,15 -12,-4 -19,-17 -15,-30 12,-37 46,-61 85,-61 39,0 73,24 86,61 4,13 -3,26 -15,30 -3,1 -5,1 -8,1z"/>
  <path class="fil2" d="M1249 867c-6,0 -12,-2 -17,-7 -9,-9 -9,-24 0,-33l169 -169c9,-9 24,-9 33,0 9,9 9,24 0,33l-169 169c-4,5 -10,7 -16,7z"/>
  <path class="fil2" d="M1418 867c-6,0 -12,-2 -17,-7l-169 -169c-9,-9 -9,-24 0,-33 9,-9 24,-9 33,0l169 169c9,9 9,24 0,33 -4,5 -10,7 -16,7z"/>
  <path class="fil2" d="M1333 625c-13,0 -23,-11 -23,-23l0 -42c0,-13 10,-23 23,-23 13,0 24,10 24,23l0 42c0,12 -11,23 -24,23z"/>
  <path class="fil2" d="M1248 625c-8,0 -16,-4 -20,-12l-21 -35c-7,-12 -3,-26 8,-32 12,-7 26,-3 32,8l21 36c6,11 3,25 -9,32 -3,2 -7,3 -11,3z"/>
  <path class="fil2" d="M1419 625c-4,0 -8,-1 -12,-3 -11,-7 -15,-21 -9,-32l21 -36c6,-11 21,-15 32,-8 11,6 15,20 9,32l-21 35c-4,8 -12,12 -20,12z"/>
  <path class="fil2" d="M1748 1722c58,0 105,-47 105,-104l0 -82c-33,11 -68,18 -105,18 -37,0 -72,-6 -105,-18l0 82c0,57 47,104 105,104z"/>
  <path class="fil2" d="M918 1722c58,0 105,-47 105,-104l0 -82c-33,11 -68,18 -105,18 -37,0 -72,-6 -105,-18l0 82c0,57 47,104 105,104z"/>
 </g>
</svg>
