<?xml version="1.0" encoding="UTF-8"?>
<!DOCTYPE svg PUBLIC "-//W3C//DTD SVG 1.1//EN" "http://www.w3.org/Graphics/SVG/1.1/DTD/svg11.dtd">
<!-- Creator: CorelDRAW -->
<svg xmlns="http://www.w3.org/2000/svg" xml:space="preserve" width="2.66666in" height="2.66666in" version="1.1" style="shape-rendering:geometricPrecision; text-rendering:geometricPrecision; image-rendering:optimizeQuality; fill-rule:evenodd; clip-rule:evenodd"
viewBox="0 0 2667 2667"
 xmlns:xlink="http://www.w3.org/1999/xlink">
 <defs>
  <style type="text/css">
   <![CDATA[
    .fil1 {fill:#333333}
    .fil0 {fill:#D7D7D7}
    .fil2 {fill:white}
   ]]>
  </style>
 </defs>
 <g id="_610097264">
  <circle class="fil0" cx="1390" cy="1387" r="1277"/>
  <circle class="fil1" cx="1277" cy="1279" r="1277"/>
 </g>
 <g id="Layer_x0020_1">
  <metadata id="CorelCorpID_0Corel-Layer"/>
  <path class="fil2" d="M1248 2182c-1,0 -2,0 -3,0 -436,-44 -765,-409 -765,-849 0,-439 329,-804 765,-848 9,-1 18,3 22,10 5,7 5,17 1,24l-64 111c-6,11 -21,15 -32,9 -11,-7 -15,-21 -8,-32l40 -70c-389,62 -677,397 -677,796 0,416 311,761 723,803 13,1 22,13 21,25 -1,12 -11,21 -23,21zm171 0c-8,0 -16,-4 -20,-10 -5,-8 -5,-17 0,-25l63 -110c7,-11 21,-15 32,-9 11,7 15,21 9,32l-40 70c389,-63 677,-397 677,-797 0,-415 -311,-760 -724,-802 -12,-1 -22,-13 -20,-26 1,-13 12,-22 25,-21 437,45 766,410 766,849 0,440 -329,805 -766,849 -1,0 -1,0 -2,0z"/>
  <path class="fil2" d="M1333 1960c-40,0 -80,-4 -118,-11 -36,-52 -58,-118 -72,-166 -9,-35 -17,-71 -24,-107l429 0c-7,36 -15,72 -25,107 -13,48 -36,114 -71,166 -38,7 -78,11 -119,11zm-150 -18c-156,-39 -289,-136 -374,-266l284 0c8,43 18,85 30,125 13,42 32,94 60,141zm391 -266l284 0c-86,130 -219,227 -374,266 27,-47 47,-99 59,-141 13,-40 23,-82 31,-125zm-782 -27c-52,-89 -83,-192 -85,-302l356 0c1,98 8,202 25,302l-296 0zm299 -302l485 0c-1,98 -7,202 -24,302l-438 0c-16,-100 -23,-204 -23,-302zm513 0l356 0c-3,110 -34,213 -86,302l-295 0c17,-100 24,-204 25,-302zm-897 -27c2,-110 33,-213 85,-302l296 0c-17,100 -24,204 -25,302l-356 0zm407 -302l438 0c17,100 23,204 24,302l-485 0c0,-98 7,-202 23,-302zm465 0l295 0c52,89 83,192 86,302l-356 0c-1,-98 -8,-202 -25,-302zm-770 -27c85,-131 218,-227 374,-266 -28,46 -47,99 -60,140 -12,41 -22,83 -30,126l-284 0zm406 -273c38,-7 78,-11 118,-11 41,0 81,4 119,11 35,51 58,118 71,166 10,35 18,70 25,107l-429 0c7,-37 15,-72 24,-107 14,-48 36,-115 72,-166zm269 7c155,39 288,135 374,266l-284 0c-8,-43 -18,-85 -31,-126 -12,-41 -32,-94 -59,-140z"/>
 </g>
</svg>
