<?xml version="1.0" encoding="UTF-8"?>
<!DOCTYPE svg PUBLIC "-//W3C//DTD SVG 1.1//EN" "http://www.w3.org/Graphics/SVG/1.1/DTD/svg11.dtd">
<!-- Creator: CorelDRAW -->
<svg xmlns="http://www.w3.org/2000/svg" xml:space="preserve" width="2.66666in" height="2.66666in" version="1.1" style="shape-rendering:geometricPrecision; text-rendering:geometricPrecision; image-rendering:optimizeQuality; fill-rule:evenodd; clip-rule:evenodd"
viewBox="0 0 2667 2667"
 xmlns:xlink="http://www.w3.org/1999/xlink">
 <defs>
  <style type="text/css">
   <![CDATA[
    .fil1 {fill:#333333}
    .fil0 {fill:#D7D7D7}
    .fil2 {fill:white}
   ]]>
  </style>
 </defs>
 <g id="_610097264">
  <circle class="fil0" cx="1390" cy="1387" r="1277"/>
  <circle class="fil1" cx="1277" cy="1279" r="1277"/>
 </g>
 <g id="Layer_x0020_1">
  <metadata id="CorelCorpID_0Corel-Layer"/>
  <path class="fil2" d="M1805 2187l-943 0c-13,0 -24,-11 -24,-24l0 -74c0,-53 44,-97 98,-97l795 0c54,0 97,44 97,97l0 74c0,13 -10,24 -23,24z"/>
  <path class="fil2" d="M948 1965l0 -24c0,-53 44,-97 97,-97l576 0c54,0 98,44 98,97l0 24 -771 0z"/>
  <path class="fil2" d="M1064 1817c21,-71 60,-227 78,-421 12,-4 24,-10 35,-18l156 -114 156 114c11,8 24,14 36,18 18,194 57,350 78,421l-539 0z"/>
  <path class="fil2" d="M1105 1375c-20,0 -39,-6 -56,-19 -35,-25 -48,-67 -35,-108l66 -201 -172 -125c-35,-25 -48,-67 -35,-107 13,-41 49,-67 91,-67 0,0 0,0 0,0l213 1 65 -202c13,-41 49,-67 91,-67 43,0 79,26 92,67l65 202 213 -1c0,0 0,0 0,0 42,0 78,26 91,67 13,40 -1,82 -35,107l-172 125 66 201c13,41 -1,83 -35,108 -35,25 -79,25 -113,0l-172 -125 -171 125c-17,13 -37,19 -57,19zm228 -290c72,0 130,-58 130,-130 0,-71 -58,-130 -130,-130 -71,0 -130,59 -130,130 0,72 59,130 130,130zm0 -233c57,0 104,46 104,103 0,57 -47,104 -104,104 -57,0 -103,-47 -103,-104 0,-57 46,-103 103,-103z"/>
 </g>
</svg>
