<?xml version="1.0" encoding="UTF-8"?>
<!DOCTYPE svg PUBLIC "-//W3C//DTD SVG 1.1//EN" "http://www.w3.org/Graphics/SVG/1.1/DTD/svg11.dtd">
<!-- Creator: CorelDRAW -->
<svg xmlns="http://www.w3.org/2000/svg" xml:space="preserve" width="2.66666in" height="2.66666in" version="1.1" style="shape-rendering:geometricPrecision; text-rendering:geometricPrecision; image-rendering:optimizeQuality; fill-rule:evenodd; clip-rule:evenodd"
viewBox="0 0 2667 2667"
 xmlns:xlink="http://www.w3.org/1999/xlink">
 <defs>
  <style type="text/css">
   <![CDATA[
    .fil1 {fill:#333333}
    .fil0 {fill:#D7D7D7}
    .fil2 {fill:white}
   ]]>
  </style>
 </defs>
 <g id="_610097264">
  <circle class="fil0" cx="1390" cy="1387" r="1277"/>
  <circle class="fil1" cx="1277" cy="1279" r="1277"/>
 </g>
 <g id="Layer_x0020_1">
  <metadata id="CorelCorpID_0Corel-Layer"/>
  <path class="fil2" d="M1961 2086c-58,0 -116,-22 -160,-66 -19,-19 -34,-42 -46,-66 -88,61 -211,52 -288,-26 -43,-42 -66,-99 -66,-159 0,-61 23,-117 66,-160l242 -242c88,-89 231,-89 319,0 78,77 87,200 26,288 25,11 47,27 67,46 42,43 66,100 66,160 0,60 -24,117 -66,159 -44,44 -102,66 -160,66zm0 -114c30,0 58,-12 78,-33 44,-43 44,-113 0,-157 -43,-43 -113,-43 -157,0 -43,44 -43,114 0,157 21,21 49,33 79,33zm0 -195c22,0 44,8 60,24 33,33 33,87 0,119 -33,33 -87,33 -120,0 -32,-32 -32,-86 0,-119 16,-16 38,-24 60,-24zm-335 102c30,0 58,-11 79,-32 43,-43 43,-114 0,-157 -44,-43 -114,-43 -157,0 -44,43 -44,114 0,157 21,21 49,32 78,32zm0 -195c23,0 44,9 60,25 33,33 33,86 0,119 -33,33 -86,33 -119,0 -33,-33 -33,-86 0,-119 15,-16 37,-25 59,-25zm243 -47c29,0 57,-12 78,-33 43,-43 44,-113 0,-157 -43,-43 -113,-43 -157,0 -43,44 -43,114 0,157 21,21 49,33 79,33zm0 -195c22,0 44,9 59,24 33,33 33,87 0,120 -32,33 -86,33 -119,0 -33,-33 -33,-87 0,-120 16,-15 37,-24 60,-24z"/>
  <path class="fil2" d="M1491 1547l-778 -779c-43,-43 -43,-113 0,-156 43,-42 112,-42 155,0l779 779 -156 156z"/>
  <path class="fil2" d="M590 1123c-30,0 -57,-11 -78,-32 -21,-21 -32,-48 -32,-78 0,-29 11,-57 32,-77l167 -167c4,6 9,12 15,18l139 139 -165 165c-21,21 -49,32 -78,32z"/>
  <path class="fil2" d="M822 1355c-29,0 -57,-11 -78,-32 -43,-43 -43,-113 0,-156l165 -165 156 156 -166 165c-21,21 -49,32 -77,32z"/>
 </g>
</svg>
