<?xml version="1.0" encoding="UTF-8"?>
<!DOCTYPE svg PUBLIC "-//W3C//DTD SVG 1.1//EN" "http://www.w3.org/Graphics/SVG/1.1/DTD/svg11.dtd">
<!-- Creator: CorelDRAW -->
<svg xmlns="http://www.w3.org/2000/svg" xml:space="preserve" width="2.66666in" height="2.66666in" version="1.1" style="shape-rendering:geometricPrecision; text-rendering:geometricPrecision; image-rendering:optimizeQuality; fill-rule:evenodd; clip-rule:evenodd"
viewBox="0 0 2667 2667"
 xmlns:xlink="http://www.w3.org/1999/xlink">
 <defs>
  <style type="text/css">
   <![CDATA[
    .fil1 {fill:#333333}
    .fil0 {fill:#D7D7D7}
    .fil2 {fill:white}
   ]]>
  </style>
 </defs>
 <g id="_610097264">
  <circle class="fil0" cx="1390" cy="1387" r="1277"/>
  <circle class="fil1" cx="1277" cy="1279" r="1277"/>
 </g>
 <g id="Layer_x0020_1">
  <metadata id="CorelCorpID_0Corel-Layer"/>
  <path class="fil2" d="M700 2187c-27,0 -50,-9 -67,-26 -27,-26 -32,-68 -17,-118l68 -214c-34,-19 -62,-47 -82,-82 -41,-71 -39,-159 3,-227 -71,-38 -116,-114 -116,-195 0,-82 45,-157 116,-195 -42,-69 -44,-157 -3,-228 41,-70 118,-113 198,-110 -2,-81 40,-158 111,-199 71,-41 159,-39 227,3 39,-70 114,-116 195,-116 82,0 157,46 196,117 68,-43 156,-45 227,-4 71,41 113,118 111,199 80,-3 157,40 198,111 41,70 39,158 -3,227 70,38 116,113 116,195 0,82 -46,157 -116,195 42,68 44,156 3,227 -41,71 -118,113 -198,111 2,80 -40,158 -111,199 -71,40 -159,38 -227,-4 -39,71 -114,117 -196,117 -81,0 -155,-45 -194,-115l-388 123c-18,6 -35,9 -51,9zm979 -739c68,0 123,-55 123,-123 0,-69 -55,-124 -123,-124 -69,0 -124,55 -124,124 0,68 56,123 124,123zm0 -220c53,0 97,43 97,97 0,53 -44,97 -97,97 -54,0 -97,-44 -97,-97 0,-54 43,-97 97,-97zm-346 220c69,0 124,-55 124,-123 0,-68 -55,-124 -124,-124 -68,0 -123,55 -123,124 0,68 55,123 123,123zm0 -220c54,0 97,43 97,97 0,53 -43,97 -97,97 -53,0 -96,-44 -96,-97 0,-54 43,-97 96,-97zm-345 220c68,0 124,-55 124,-123 0,-69 -56,-124 -124,-124 -68,0 -123,55 -123,124 0,68 55,123 123,123zm0 -220c54,0 97,43 97,97 0,53 -43,97 -97,97 -53,0 -97,-44 -97,-97 0,-54 44,-97 97,-97z"/>
 </g>
</svg>
