<?xml version="1.0" encoding="UTF-8"?>
<!DOCTYPE svg PUBLIC "-//W3C//DTD SVG 1.1//EN" "http://www.w3.org/Graphics/SVG/1.1/DTD/svg11.dtd">
<!-- Creator: CorelDRAW -->
<svg xmlns="http://www.w3.org/2000/svg" xml:space="preserve" width="2.66666in" height="2.66666in" version="1.1" style="shape-rendering:geometricPrecision; text-rendering:geometricPrecision; image-rendering:optimizeQuality; fill-rule:evenodd; clip-rule:evenodd"
viewBox="0 0 2667 2667"
 xmlns:xlink="http://www.w3.org/1999/xlink">
 <defs>
  <style type="text/css">
   <![CDATA[
    .str0 {stroke:white;stroke-width:26.6654;stroke-linecap:round;stroke-linejoin:round}
    .fil1 {fill:#333333}
    .fil0 {fill:#D7D7D7}
    .fil2 {fill:white}
   ]]>
  </style>
 </defs>
 <g id="_610097264">
  <circle class="fil0" cx="1390" cy="1387" r="1277"/>
  <circle class="fil1" cx="1277" cy="1279" r="1277"/>
 </g>
 <g id="Layer_x0020_1">
  <metadata id="CorelCorpID_0Corel-Layer"/>
  <g>
   <path class="fil2" d="M1333 2187c-101,0 -198,-21 -287,-57l0 -325c0,-8 -6,-14 -13,-14 -8,0 -14,6 -14,14l0 313c-71,-32 -136,-76 -193,-127l0 -411c0,-79 65,-143 144,-143l202 0 0 67c0,89 72,162 161,162 2,0 3,0 4,0 2,0 3,0 5,0 1,0 2,-1 4,-1 1,0 2,0 4,0 1,0 2,0 4,0 1,-1 2,-1 4,-1 1,0 2,0 4,-1 1,0 2,0 4,0l0 0c1,-1 2,-1 4,-1l0 0c1,-1 2,-1 4,-1l0 0c1,-1 2,-1 3,-1l0 0c3,-1 6,-2 8,-3l0 0c64,-21 110,-82 110,-153l0 -67 202 0c79,0 143,64 143,143l0 411c-57,51 -122,95 -193,127l0 -313c0,-8 -6,-14 -13,-14 -7,0 -13,6 -13,14l0 325c-89,36 -186,57 -288,57zm44 -527c3,-1 6,-2 8,-3l-8 3zm-577 305c-137,-137 -222,-325 -222,-533 0,-276 146,-523 383,-658l0 101c0,23 16,43 37,49l0 116c0,126 70,237 174,294l0 76 -202 0c-94,0 -170,76 -170,170l0 385zm401 -617c40,18 85,27 132,27 47,0 92,-9 133,-27l2 -1 0 75c0,0 0,1 0,1l0 81c0,36 -14,69 -37,93l0 0c-1,1 -2,2 -2,2 -25,25 -59,40 -96,40 -74,0 -135,-60 -135,-135l0 -157 3 1zm294 -14c103,-57 173,-168 173,-294l0 -117c21,-5 37,-25 37,-48l0 -101c238,134 383,382 383,658 0,208 -85,397 -221,533l0 -385c0,-94 -77,-170 -170,-170l-202 0 0 -76z"/>
  </g>
  <path class="fil2" d="M1655 899l-56 0c-44,0 -79,-36 -79,-80l0 -41 -373 0 0 41c0,44 -36,80 -80,80l-56 0c-12,0 -23,-11 -23,-24l0 -293c0,-56 46,-102 102,-102l487 0c56,0 101,46 101,102l0 293c0,13 -10,24 -23,24z"/>
  <g>
   <path class="fil2 str0" d="M1258 956c-14,-28 -43,-45 -74,-45 -32,0 -60,17 -74,45 -4,7 -1,15 5,18 7,4 15,1 18,-6 10,-18 29,-30 51,-30 21,0 40,11 50,31 2,4 7,7 12,7 2,0 4,-1 6,-2 7,-3 9,-11 6,-18z"/>
   <path class="fil2 str0" d="M1483 911c-31,0 -60,17 -74,45 -3,7 -1,15 6,18 6,4 14,1 18,-6 9,-18 29,-30 50,-30 21,0 41,11 50,31 3,4 7,7 12,7 2,0 5,-1 7,-2 6,-3 9,-11 5,-18 -14,-28 -43,-45 -74,-45z"/>
   <path class="fil2 str0" d="M1483 1009c-7,0 -13,6 -13,13l0 26c0,8 6,14 13,14 7,0 13,-6 13,-14l0 -26c0,-7 -6,-13 -13,-13z"/>
   <path class="fil2 str0" d="M1197 1048l0 -26c0,-7 -6,-13 -13,-13 -8,0 -14,6 -14,13l0 26c0,8 6,14 14,14 7,0 13,-6 13,-14z"/>
   <path class="fil2 str0" d="M1333 1194c-30,0 -57,-19 -66,-48 -3,-7 -10,-11 -17,-9 -7,3 -11,10 -9,17 13,40 50,67 92,67 42,0 79,-27 92,-67 2,-7 -2,-14 -9,-17 -7,-2 -14,2 -16,9 -10,29 -37,48 -67,48z"/>
  </g>
 </g>
</svg>
