<?xml version="1.0" encoding="UTF-8"?>
<!DOCTYPE svg PUBLIC "-//W3C//DTD SVG 1.1//EN" "http://www.w3.org/Graphics/SVG/1.1/DTD/svg11.dtd">
<!-- Creator: CorelDRAW -->
<svg xmlns="http://www.w3.org/2000/svg" xml:space="preserve" width="2.66666in" height="2.66666in" version="1.1" style="shape-rendering:geometricPrecision; text-rendering:geometricPrecision; image-rendering:optimizeQuality; fill-rule:evenodd; clip-rule:evenodd"
viewBox="0 0 2667 2667"
 xmlns:xlink="http://www.w3.org/1999/xlink">
 <defs>
  <style type="text/css">
   <![CDATA[
    .fil1 {fill:#333333}
    .fil0 {fill:#D7D7D7}
    .fil2 {fill:white}
   ]]>
  </style>
 </defs>
 <g id="_610097264">
  <circle class="fil0" cx="1390" cy="1387" r="1277"/>
  <circle class="fil1" cx="1277" cy="1279" r="1277"/>
 </g>
 <g id="Layer_x0020_1">
  <metadata id="CorelCorpID_0Corel-Layer"/>
  <path class="fil2" d="M2044 2106l-137 0c-78,0 -142,-64 -142,-143l0 -27 164 0c18,0 18,-26 0,-26 -397,0 -794,0 -1192,0 -17,0 -17,26 0,26l165 0 0 27c0,79 -64,142 -143,142l-137 0c-78,1 -142,-63 -142,-142l0 -524c0,-124 101,-226 225,-226l1256 0c125,0 226,102 226,226l0 524c0,79 -64,143 -143,143zm-1212 -376c93,0 169,-75 169,-168 0,-93 -76,-169 -169,-169 -93,0 -169,76 -169,169 0,93 76,168 169,168zm0 -310c79,0 142,63 142,142 0,78 -63,142 -142,142 -78,0 -142,-64 -142,-142 0,-79 64,-142 142,-142zm971 310c93,0 169,-75 169,-168 0,-93 -76,-169 -169,-169 -93,0 -169,76 -169,169 0,93 76,168 169,168zm0 -310c78,0 142,63 142,142 0,78 -64,142 -142,142 -79,0 -142,-64 -142,-142 0,-79 63,-142 142,-142zm-957 68c0,19 -28,19 -28,0 0,-18 28,-18 28,0zm73 74c0,-19 -27,-19 -27,0 0,18 27,18 27,0zm-73 73c0,18 -28,18 -28,0 0,-18 28,-18 28,0zm-73 -73c0,18 -28,18 -28,0 0,-19 28,-19 28,0zm1044 -74c0,19 -28,19 -28,0 0,-18 28,-18 28,0zm73 74c0,18 -28,18 -28,0 0,-19 28,-19 28,0zm-73 73c0,18 -28,18 -28,0 0,-18 28,-18 28,0zm-101 -73c0,18 27,18 27,0 0,-19 -27,-19 -27,0zm-451 104c33,0 89,-27 75,-48l-38 -56 38 -57c17,-26 -84,-82 -149,-17 -65,65 -19,178 74,178zm0 -182c20,0 30,6 46,15l-36 55c-3,5 -3,11 0,15l36 55c-34,19 -71,23 -101,-8 -49,-48 -14,-132 55,-132zm130 92c18,0 18,-27 0,-27 -16,0 -37,-3 -37,14 0,17 21,13 37,13zm98 0c17,0 17,-27 0,-27 -16,0 -38,-3 -38,14 0,17 22,13 38,13zm17 209c39,0 71,-31 71,-71l0 -305c0,-39 -32,-71 -71,-71l-353 0c-39,0 -71,32 -71,71l0 305c0,40 32,71 71,71l353 0zm-363 -419l0 -2 363 0c24,0 44,20 44,45l0 305c0,25 -20,45 -44,45l-353 0c-24,0 -44,-20 -44,-45l0 -305c0,-21 14,-39 34,-43z"/>
  <path class="fil2" d="M698 1187l0 -14c0,-23 19,-42 42,-42l214 0c23,0 41,19 41,42l0 14 -290 0c-2,0 -4,0 -7,0z"/>
  <path class="fil2" d="M1671 1187l0 -14c0,-23 19,-42 42,-42l214 0c23,0 41,19 41,42l0 14c-2,0 -4,0 -7,0l-290 0z"/>
  <path class="fil2" d="M1318 1076c17,-87 53,-160 107,-218 129,-139 116,-270 116,-271 -2,-13 7,-24 20,-26 13,-1 25,8 26,21 1,6 16,153 -127,308 -46,49 -78,112 -94,186l105 0c30,0 54,24 54,54l0 57 -383 0 0 -57c0,-30 24,-54 54,-54l122 0z"/>
 </g>
</svg>
