<?xml version="1.0" encoding="UTF-8"?>
<!DOCTYPE svg PUBLIC "-//W3C//DTD SVG 1.1//EN" "http://www.w3.org/Graphics/SVG/1.1/DTD/svg11.dtd">
<!-- Creator: CorelDRAW -->
<svg xmlns="http://www.w3.org/2000/svg" xml:space="preserve" width="2.66666in" height="2.66666in" version="1.1" style="shape-rendering:geometricPrecision; text-rendering:geometricPrecision; image-rendering:optimizeQuality; fill-rule:evenodd; clip-rule:evenodd"
viewBox="0 0 2667 2667"
 xmlns:xlink="http://www.w3.org/1999/xlink">
 <defs>
  <style type="text/css">
   <![CDATA[
    .fil1 {fill:#333333}
    .fil0 {fill:#D7D7D7}
    .fil2 {fill:white}
   ]]>
  </style>
 </defs>
 <g id="_610097264">
  <circle class="fil0" cx="1390" cy="1387" r="1277"/>
  <circle class="fil1" cx="1277" cy="1279" r="1277"/>
 </g>
 <g id="Layer_x0020_1">
  <metadata id="CorelCorpID_0Corel-Layer"/>
  <g id="_595952232">
   <path class="fil2" d="M1847 1270l-997 0c-52,0 -95,-43 -95,-95l0 -71c0,-13 11,-23 23,-23l156 0 0 -151c0,-188 152,-340 340,-340l573 0c187,0 340,152 340,340 0,187 -153,340 -340,340zm85 -166c7,0 13,-6 13,-14 0,-7 -6,-13 -13,-13l-743 0c-8,0 -13,6 -13,13 0,8 5,14 13,14l743 0zm0 -161c7,0 13,-6 13,-13 0,-8 -6,-14 -13,-14l-743 0c-8,0 -13,6 -13,14 0,7 5,13 13,13l743 0zm0 -160c7,0 13,-6 13,-14 0,-7 -6,-13 -13,-13l-743 0c-8,0 -13,6 -13,13 0,8 5,14 13,14l743 0z"/>
   <path class="fil2" d="M1817 2077l-997 0c-188,0 -340,-153 -340,-340 0,-188 152,-340 340,-340l573 0c187,0 340,152 340,340l0 151 155 0c13,0 24,10 24,23l0 71c0,52 -43,95 -95,95zm-339 -166c7,0 13,-6 13,-14 0,-7 -6,-13 -13,-13l-743 0c-8,0 -13,6 -13,13 0,8 5,14 13,14l743 0zm0 -161c7,0 13,-6 13,-13 0,-8 -6,-14 -13,-14l-743 0c-8,0 -13,6 -13,14 0,7 5,13 13,13l743 0zm0 -160c7,0 13,-6 13,-14 0,-7 -6,-13 -13,-13l-743 0c-8,0 -13,6 -13,13 0,8 5,14 13,14l743 0z"/>
  </g>
 </g>
</svg>
