<?xml version="1.0" encoding="UTF-8"?>
<!DOCTYPE svg PUBLIC "-//W3C//DTD SVG 1.1//EN" "http://www.w3.org/Graphics/SVG/1.1/DTD/svg11.dtd">
<!-- Creator: CorelDRAW -->
<svg xmlns="http://www.w3.org/2000/svg" xml:space="preserve" width="2.66666in" height="2.66666in" version="1.1" style="shape-rendering:geometricPrecision; text-rendering:geometricPrecision; image-rendering:optimizeQuality; fill-rule:evenodd; clip-rule:evenodd"
viewBox="0 0 2667 2667"
 xmlns:xlink="http://www.w3.org/1999/xlink">
 <defs>
  <style type="text/css">
   <![CDATA[
    .fil1 {fill:#333333}
    .fil0 {fill:#D7D7D7}
    .fil2 {fill:white}
   ]]>
  </style>
 </defs>
 <g id="_610097264">
  <circle class="fil0" cx="1390" cy="1387" r="1277"/>
  <circle class="fil1" cx="1277" cy="1279" r="1277"/>
 </g>
 <g id="Layer_x0020_1">
  <metadata id="CorelCorpID_0Corel-Layer"/>
  <path class="fil2" d="M2093 1830l-1519 0c-52,0 -94,-42 -94,-94l0 -806c0,-51 42,-93 94,-93l1519 0c52,0 94,42 94,93l0 806c0,52 -42,94 -94,94zm-289 -805c8,0 14,-6 14,-13 0,-7 -6,-13 -13,-13l-318 0c-7,0 -13,6 -13,13 0,7 6,13 13,13l317 0zm216 163c8,0 14,-6 14,-14 0,-7 -6,-13 -14,-13l-533 0c-7,0 -13,6 -13,13 0,8 6,14 13,14l533 0zm0 162c8,0 14,-6 14,-13 0,-8 -6,-14 -14,-14l-533 0c-7,0 -13,6 -13,14 0,7 6,13 13,13l533 0zm0 162c8,0 14,-6 14,-13 0,-7 -6,-13 -14,-13l-533 0c-7,0 -13,6 -13,13 0,7 6,13 13,13l533 0zm0 163c8,0 14,-6 14,-14 0,-7 -6,-13 -14,-13l-533 0c-7,0 -13,6 -13,13 0,8 6,14 13,14l533 0zm-841 -7c8,0 14,-6 14,-13 0,-8 -6,-14 -14,-14l-521 0c-8,0 -14,6 -14,14 0,7 6,13 14,13l521 0zm0 -123c8,0 14,-6 14,-14 0,-7 -6,-13 -14,-13l-521 0c-8,0 -14,6 -14,13 0,8 6,14 14,14l521 0zm0 -124c8,0 14,-6 14,-13 0,-7 -6,-13 -14,-13l-521 0c-8,0 -14,6 -14,13 0,7 6,13 14,13l521 0zm-31 -123c25,0 45,-20 45,-44l0 -211c0,-25 -20,-44 -45,-44l-460 0c-24,0 -44,19 -44,44l0 211c0,24 20,44 44,44l460 0zm-460 -273l460 0c10,0 18,8 18,18l0 211c0,9 -8,17 -18,17l-460 0c-9,0 -17,-8 -17,-17l0 -211c0,-10 8,-18 17,-18zm645 650c8,0 14,-6 14,-14l0 -656c0,-7 -6,-13 -14,-13 -7,0 -13,6 -13,13l0 656c0,8 6,14 13,14z"/>
 </g>
</svg>
